<svg xmlns="http://www.w3.org/2000/svg" width="56" height="56" viewBox="0 0 56 56">
  <g id="Group_13523" data-name="Group 13523" transform="translate(-3796 284)">
    <g id="Group_13521" data-name="Group 13521" transform="translate(1591 -339)">
      <g id="Group_13519" data-name="Group 13519">
        <g id="Group_13514" data-name="Group 13514" transform="translate(-1 -28)">
          <g id="Group_13508" data-name="Group 13508">
            <rect id="Rectangle_4596" data-name="Rectangle 4596" width="56" height="56" transform="translate(2206 83)" fill="none"/>
            <g id="Group_13506" data-name="Group 13506" transform="translate(-7.7 -1.836)">
              <g id="Group_13500" data-name="Group 13500" transform="translate(2222 89)">
                <g id="Group_13446" data-name="Group 13446" transform="translate(0 15.376)">
                  <path id="Path_14085" data-name="Path 14085" d="M7.58,30.678A18.868,18.868,0,0,0,24.622,26.3" transform="translate(6.91 1.647)" fill="none" stroke="#444b54" stroke-linecap="round" stroke-linejoin="round" stroke-miterlimit="10" stroke-width="2"/>
                  <path id="Path_14086" data-name="Path 14086" d="M15.9,31.205a18.867,18.867,0,0,0,5.688-9.6" transform="translate(15.612 -3.258)" fill="none" stroke="#444b54" stroke-linecap="round" stroke-linejoin="round" stroke-miterlimit="10" stroke-width="2"/>
                  <path id="Path_14087" data-name="Path 14087" d="M19.057,27.3a18.831,18.831,0,0,0-.737-11.13" transform="translate(18.144 -8.948)" fill="none" stroke="#444b54" stroke-linecap="round" stroke-linejoin="round" stroke-miterlimit="10" stroke-width="2"/>
                  <path id="Path_14088" data-name="Path 14088" d="M14.337,34.36A18.781,18.781,0,0,1,1.12,22.78" transform="translate(0.154 -2.034)" fill="none" stroke="#444b54" stroke-linecap="round" stroke-linejoin="round" stroke-miterlimit="10" stroke-width="2"/>
                  <path id="Path_14089" data-name="Path 14089" d="M1.014,17.33a18.831,18.831,0,0,0,.737,11.13" transform="translate(-0.497 -7.735)" fill="none" stroke="#444b54" stroke-linecap="round" stroke-linejoin="round" stroke-miterlimit="10" stroke-width="2"/>
                  <path id="Path_14090" data-name="Path 14090" d="M6.438,12.64a18.867,18.867,0,0,0-5.688,9.6" transform="translate(-0.233 -12.64)" fill="none" stroke="#444b54" stroke-linecap="round" stroke-linejoin="round" stroke-miterlimit="10" stroke-width="2"/>
                  <line id="Line_99" data-name="Line 99" transform="translate(6.205)" fill="none" stroke="#444b54" stroke-linecap="round" stroke-linejoin="round" stroke-miterlimit="10" stroke-width="2"/>
                  <line id="Line_100" data-name="Line 100" x1="0.02" transform="translate(36.464 7.222)" fill="none" stroke="#444b54" stroke-linecap="round" stroke-linejoin="round" stroke-miterlimit="10" stroke-width="2"/>
                  <path id="Path_14091" data-name="Path 14091" d="M8.209,22.842a31.1,31.1,0,0,0-7.1.041" transform="translate(0.143 -2.158)" fill="none" stroke="#444b54" stroke-linecap="round" stroke-linejoin="round" stroke-miterlimit="10" stroke-width="2"/>
                  <line id="Line_101" data-name="Line 101" x2="0.02" transform="translate(1.253 20.725)" fill="none" stroke="#444b54" stroke-linecap="round" stroke-linejoin="round" stroke-miterlimit="10" stroke-width="2"/>
                  <path id="Path_14092" data-name="Path 14092" d="M19.121,27.953a29.77,29.77,0,0,0-6.3-3.233" transform="translate(12.391 -0.005)" fill="none" stroke="#444b54" stroke-linecap="round" stroke-linejoin="round" stroke-miterlimit="10" stroke-width="2"/>
                  <line id="Line_102" data-name="Line 102" transform="translate(31.533 27.947)" fill="none" stroke="#444b54" stroke-linecap="round" stroke-linejoin="round" stroke-miterlimit="10" stroke-width="2"/>
                  <path id="Path_14093" data-name="Path 14093" d="M8.77,23.46a60.189,60.189,0,0,1,8.286,2.578" transform="translate(8.155 -1.323)" fill="none" stroke="#444b54" stroke-linecap="round" stroke-linejoin="round" stroke-miterlimit="10" stroke-width="2"/>
                  <path id="Path_14094" data-name="Path 14094" d="M4.58,22.75a63.968,63.968,0,0,1,8.572,1.432" transform="translate(3.773 -2.066)" fill="none" stroke="#444b54" stroke-linecap="round" stroke-linejoin="round" stroke-miterlimit="10" stroke-width="2"/>
                  <path id="Path_14095" data-name="Path 14095" d="M15.048,16.19a23.379,23.379,0,0,1-.368,9.125" transform="translate(14.336 -8.927)" fill="none" stroke="#444b54" stroke-linecap="round" stroke-linejoin="round" stroke-miterlimit="10" stroke-width="2"/>
                  <path id="Path_14096" data-name="Path 14096" d="M8.16,32.433a22.468,22.468,0,0,0,9.534-7.713" transform="translate(7.517 -0.005)" fill="none" stroke="#444b54" stroke-linecap="round" stroke-linejoin="round" stroke-miterlimit="10" stroke-width="2"/>
                  <path id="Path_14097" data-name="Path 14097" d="M12.82,28.966a23.915,23.915,0,0,0,3.805-8.306h0" transform="translate(12.391 -4.252)" fill="none" stroke="#444b54" stroke-linecap="round" stroke-linejoin="round" stroke-miterlimit="10" stroke-width="2"/>
                  <path id="Path_14098" data-name="Path 14098" d="M4.725,27.415a23.379,23.379,0,0,1,.368-9.125h0" transform="translate(3.628 -6.731)" fill="none" stroke="#444b54" stroke-linecap="round" stroke-linejoin="round" stroke-miterlimit="10" stroke-width="2"/>
                  <path id="Path_14099" data-name="Path 14099" d="M9.613,33.941A22.681,22.681,0,0,1,4.58,22.75" transform="translate(3.773 -2.066)" fill="none" stroke="#444b54" stroke-linecap="round" stroke-linejoin="round" stroke-miterlimit="10" stroke-width="2"/>
                  <path id="Path_14100" data-name="Path 14100" d="M7.348,15.15a23.131,23.131,0,0,0-2.6,6.424" transform="translate(3.951 -10.015)" fill="none" stroke="#444b54" stroke-linecap="round" stroke-linejoin="round" stroke-miterlimit="10" stroke-width="2"/>
                  <line id="Line_103" data-name="Line 103" y1="8.163" x2="1.944" transform="translate(16.925 13.974)" fill="none" stroke="#444b54" stroke-linecap="round" stroke-linejoin="round" stroke-miterlimit="10" stroke-width="2"/>
                  <line id="Line_104" data-name="Line 104" x1="2.803" y2="11.744" transform="translate(18.869 2.23)" fill="none" stroke="#444b54" stroke-linecap="round" stroke-linejoin="round" stroke-miterlimit="10" stroke-width="2"/>
                  <line id="Line_105" data-name="Line 105" y1="10.189" x2="2.435" transform="translate(14.49 22.137)" fill="none" stroke="#444b54" stroke-linecap="round" stroke-linejoin="round" stroke-miterlimit="10" stroke-width="2"/>
                  <line id="Line_106" data-name="Line 106" x1="10.148" y1="2.414" transform="translate(8.721 11.559)" fill="none" stroke="#444b54" stroke-linecap="round" stroke-linejoin="round" stroke-miterlimit="10" stroke-width="2"/>
                  <line id="Line_107" data-name="Line 107" x2="8.204" y2="1.964" transform="translate(0.517 9.595)" fill="none" stroke="#444b54" stroke-linecap="round" stroke-linejoin="round" stroke-miterlimit="10" stroke-width="2"/>
                  <line id="Line_108" data-name="Line 108" x1="8.184" y1="1.964" transform="translate(29.016 16.388)" fill="none" stroke="#444b54" stroke-linecap="round" stroke-linejoin="round" stroke-miterlimit="10" stroke-width="2"/>
                  <line id="Line_109" data-name="Line 109" x1="10.148" y1="2.414" transform="translate(18.869 13.974)" fill="none" stroke="#444b54" stroke-linecap="round" stroke-linejoin="round" stroke-miterlimit="10" stroke-width="2"/>
                </g>
                <path id="Path_14082" data-name="Path 14082" d="M24.932,7.64V.5Q12.871,2.4.79,4.326V16.09c2.025.164,3.028.225,5.053.389v4.5a56.294,56.294,0,0,0,5.115-4.112c2.087.164,3.785.286,5.381.409V6.29Z" transform="translate(-0.191 -0.5)" fill="#edf3fe" stroke="#444b54" stroke-linecap="round" stroke-linejoin="round" stroke-miterlimit="10" stroke-width="2"/>
                <path id="Path_14083" data-name="Path 14083" d="M8.39,13.616V20.06c5.585-.43,8.388-.634,13.994-1.064h0A52.984,52.984,0,0,0,27.5,23.109v-4.5c2.025-.164,3.048-.225,5.074-.389V6.455C27.4,5.637,22.2,4.818,17.024,4" transform="translate(7.758 3.161)" fill="#fff" stroke="#444b54" stroke-linecap="round" stroke-linejoin="round" stroke-miterlimit="10" stroke-width="2"/>
                <path id="Path_14084" data-name="Path 14084" d="M16.993,4.68c-2.864-.45-5.749-.9-8.613-1.35V14.317" transform="translate(7.747 2.46)" fill="#fff" stroke="#444b54" stroke-linecap="round" stroke-linejoin="round" stroke-miterlimit="10" stroke-width="2"/>
                <path id="Path_14081" data-name="Path 14081" d="M19.134,9.442,13.59,12.633V6.25Z" transform="translate(13.196 5.514)" fill="#1f4c88"/>
                <line id="Line_110" data-name="Line 110" y1="0.307" x2="6.138" transform="translate(5.509 6.997)" fill="none" stroke="#387ae5" stroke-linecap="round" stroke-linejoin="round" stroke-miterlimit="10" stroke-width="1"/>
                <line id="Line_111" data-name="Line 111" x2="6.567" y2="0.143" transform="translate(5.345 11.457)" fill="none" stroke="#387ae5" stroke-linecap="round" stroke-linejoin="round" stroke-miterlimit="10" stroke-width="1"/>
              </g>
            </g>
          </g>
        </g>
      </g>
    </g>
    <g id="Group_13522" data-name="Group 13522">
      <path id="Path_14161" data-name="Path 14161" d="M3821.439-272.845l22.171,3.469-15.388.512-6.783,11.2Z" fill="#fff"/>
    </g>
  </g>
</svg>
