<?xml version="1.0" encoding="UTF-8"?>
<svg width="20px" height="20px" viewBox="0 0 20 20" version="1.1" xmlns="http://www.w3.org/2000/svg" xmlns:xlink="http://www.w3.org/1999/xlink">
    <!-- Generator: Sketch 55.2 (78181) - https://sketchapp.com -->
    <title>google-plus</title>
    <desc>Created with Sketch.</desc>
    <g id="sribulancer-thanos" stroke="none" stroke-width="1" fill="none" fill-rule="evenodd">
        <g id="Homepage_New" transform="translate(-406.000000, -7355.000000)">
            <g id="footer" transform="translate(0.000000, 6770.000000)">
                <g id="sribulancer" transform="translate(0.000000, 514.000000)">
                    <g id="Sribulancer" transform="translate(286.000000, 26.000000)">
                        <g id="sosial-media" transform="translate(0.000000, 45.000000)">
                            <g id="google-plus" transform="translate(120.000000, 0.000000)">
                                <path d="M9.97671233,0 C15.4639041,0 19.9534247,4.48952055 19.9534247,9.97671233 C19.9534247,15.4639041 15.4639041,19.9534247 9.97671233,19.9534247 C4.48952055,19.9534247 0,15.4638356 0,9.97671233 C0,4.48958904 4.48952055,0 9.97671233,0 Z M15.0273973,8.29308219 L13.905,8.29308219 L13.905,9.41547945 L12.7826027,9.41547945 L12.7826027,10.5378767 L13.905,10.5378767 L13.905,11.660274 L15.0273973,11.660274 L15.0273973,10.5378767 L16.149726,10.5378767 L16.149726,9.41547945 L15.0273973,9.41547945 L15.0273973,8.29308219 Z M4.9259589,12.7826027 C6.42246575,14.2791096 9.04136986,14.2791096 10.5378082,12.8450685 C11.0990411,12.2839041 11.4108219,11.4732877 11.4731507,10.6626712 L11.4731507,9.78972603 L11.4108219,9.47794521 L7.85664384,9.47794521 L7.85664384,10.725 L10.1013699,10.725 L10.1013699,10.849726 C10.0390411,11.2238356 9.78958904,11.5980137 9.54020548,11.8473973 C8.66726027,12.8450685 6.98369863,12.8450685 6.04835616,11.8473973 C5.05068493,10.849726 5.1130137,9.16616438 6.04835616,8.23082192 C6.85890411,7.42020548 8.1060274,7.29554795 8.9789726,7.85671233 L9.35308219,8.10609589 L10.3507534,7.10842466 L9.72719178,6.67191781 L9.1660274,6.36013699 C7.73184932,5.7989726 6.11068493,6.04835616 4.98828767,7.17075342 C3.42945205,8.66719178 3.42945205,11.2860959 4.9259589,12.7826027 Z" id="Combined-Shape" fill="#FFFFFF" fill-rule="nonzero"></path>
                                <g id="Group" transform="translate(3.767123, 6.027397)"></g>
                            </g>
                        </g>
                    </g>
                </g>
            </g>
        </g>
    </g>
</svg>