<svg width="103" height="32" viewBox="0 0 103 32" fill="none" xmlns="http://www.w3.org/2000/svg">
<path d="M99.2 32H3.2C1.44 32 0 30.56 0 28.8V3.2C0 1.44 1.44 0 3.2 0H99.2C100.96 0 102.4 1.44 102.4 3.2V28.8C102.4 30.56 100.96 32 99.2 32Z" fill="black"/>
<path fill-rule="evenodd" clip-rule="evenodd" d="M7.83984 15.6804V7.28039C7.83984 6.80039 8.23984 6.40039 8.63984 6.40039C9.03984 6.40039 9.19984 6.48039 9.43984 6.64039L24.8798 15.1204C25.1998 15.2804 25.3598 15.5204 25.3598 15.7604C25.3598 16.0004 25.1998 16.2404 24.8798 16.4004L9.43984 24.8804C9.27984 24.9604 9.03984 25.1204 8.63984 25.1204C8.23984 25.1204 7.83984 24.7204 7.83984 24.2404V15.6804Z" fill="url(#paint0_linear)"/>
<path fill-rule="evenodd" clip-rule="evenodd" d="M17.84 15.7604L8.47998 6.40039C8.55998 6.40039 8.55998 6.40039 8.63998 6.40039C9.03998 6.40039 9.19998 6.48039 9.43998 6.64039L20.8 12.8804L17.84 15.7604Z" fill="url(#paint1_linear)"/>
<path fill-rule="evenodd" clip-rule="evenodd" d="M20.7198 18.5607L17.8398 15.6807L20.7998 12.7207L24.8798 14.9607C25.1998 15.1207 25.3598 15.3607 25.3598 15.6007C25.3598 15.8407 25.1998 16.0807 24.8798 16.2407L20.7198 18.5607Z" fill="url(#paint2_linear)"/>
<path fill-rule="evenodd" clip-rule="evenodd" d="M8.56006 24.9597L17.8401 15.6797L20.7201 18.5597L9.44006 24.7197C9.20006 24.8797 9.04006 24.9597 8.56006 24.9597C8.64006 24.9597 8.64006 24.9597 8.56006 24.9597Z" fill="url(#paint3_linear)"/>
<path fill-rule="evenodd" clip-rule="evenodd" d="M56.8799 27.1204C56.4799 26.8004 56.1599 26.2404 55.9999 25.9204L57.2799 25.3604C57.3599 25.5204 57.5199 25.7604 57.6799 26.0004C57.9999 26.3204 58.4799 26.6404 58.9599 26.6404C59.4399 26.6404 59.9999 26.4004 60.3199 26.0004C60.5599 25.6004 60.7199 25.2004 60.7199 24.6404V24.1604C59.7599 25.3604 57.7599 25.2004 56.6399 23.9204C55.4399 22.6404 55.4399 20.4804 56.6399 19.2004C57.8399 18.0004 59.5999 17.8404 60.6399 18.9604V18.4004H61.9999V24.4004C61.9999 25.9204 61.4399 26.8004 60.7199 27.3604C60.2399 27.7604 59.5199 27.9204 58.8799 27.9204C58.1599 27.8404 57.4399 27.6004 56.8799 27.1204ZM90.3999 27.4404L91.7599 24.2404L89.3599 18.7204H90.7199L92.3999 22.6404L94.0799 18.7204H95.4399L91.7599 27.4404H90.3999ZM83.9199 24.4004C83.5199 24.0004 83.3599 23.4404 83.3599 22.8804C83.3599 22.4004 83.5199 21.9204 83.8399 21.6004C84.3999 21.0404 85.1999 20.8004 86.0799 20.8004C86.6399 20.8004 87.1199 20.8804 87.5199 21.1204C87.5199 20.1604 86.7199 19.7604 86.0799 19.7604C85.5199 19.7604 84.9599 20.0804 84.7199 20.6404L83.5199 20.1604C83.7599 19.6004 84.3999 18.5604 85.9999 18.5604C86.7999 18.5604 87.5999 18.8004 88.0799 19.3604C88.5599 19.9204 88.7199 20.5604 88.7199 21.4404V24.8004H87.3599V24.2404C87.1999 24.4804 86.8799 24.6404 86.6399 24.8004C86.3199 24.9604 85.9199 25.0404 85.5199 25.0404C85.0399 24.9604 84.3199 24.8004 83.9199 24.4004ZM41.2799 21.5204C41.2799 19.9204 42.4799 18.1604 44.6399 18.1604C46.7199 18.1604 47.9999 19.9204 47.9999 21.5204C47.9999 23.1204 46.7999 24.8804 44.6399 24.8804C42.4799 24.8804 41.2799 23.1204 41.2799 21.5204ZM48.4799 21.5204C48.4799 19.9204 49.6799 18.1604 51.8399 18.1604C53.9199 18.1604 55.1999 19.9204 55.1999 21.5204C55.1999 23.1204 53.9999 24.8804 51.8399 24.8804C49.7599 24.8804 48.4799 23.1204 48.4799 21.5204ZM32.2399 23.2804C30.2399 21.2804 30.3199 18.0004 32.3199 15.9204C33.3599 14.8804 34.6399 14.4004 35.9999 14.4004C37.2799 14.4004 38.5599 14.8804 39.5199 15.8404L38.5599 16.8804C37.1199 15.4404 34.7999 15.5204 33.4399 16.9604C31.9999 18.4804 31.9999 20.8004 33.4399 22.3204C34.8799 23.8404 37.2799 23.9204 38.7199 22.4004C39.1999 21.9204 39.3599 21.2804 39.4399 20.6404H36.0799V19.2004H40.7999C40.8799 19.5204 40.8799 19.9204 40.8799 20.3204C40.8799 21.5204 40.3999 22.7204 39.5999 23.5204C38.7199 24.4004 37.4399 24.8804 36.1599 24.8804C34.7199 24.8004 33.2799 24.3204 32.2399 23.2804ZM66.0799 23.8404C64.8799 22.5604 64.8799 20.4004 66.0799 19.0404C67.2799 17.7604 69.2799 17.7604 70.3999 19.0404C70.7999 19.4404 71.0399 20.0004 71.2799 20.5604L66.8799 22.4004C67.1199 22.9604 67.6799 23.4404 68.4799 23.4404C69.1999 23.4404 69.6799 23.2004 70.1599 22.4804L71.3599 23.2804C71.1999 23.4404 71.0399 23.6004 70.9599 23.7604C69.5999 25.1204 67.2799 25.1204 66.0799 23.8404ZM74.3999 24.8004V15.9204H77.2799C78.9599 15.9204 80.3199 17.1204 80.3199 18.5604C80.3199 20.0004 79.1199 21.2004 77.5999 21.2004H75.8399V24.7204H74.3999V24.8004ZM81.1199 24.8004V15.9204H82.4799V24.8004H81.1199ZM63.0399 24.6404V14.7204H64.4799V24.6404H63.0399ZM87.4399 22.1604C87.1199 21.9204 86.6399 21.8404 86.1599 21.8404C85.1999 21.8404 84.6399 22.3204 84.6399 22.8804C84.6399 23.4404 85.1999 23.7604 85.7599 23.7604C86.5599 23.7604 87.4399 23.1204 87.4399 22.1604ZM46.4799 21.5204C46.4799 20.5604 45.8399 19.5204 44.6399 19.5204C43.4399 19.5204 42.7999 20.5604 42.7999 21.5204C42.7999 22.4804 43.4399 23.5204 44.6399 23.5204C45.7599 23.5204 46.4799 22.4804 46.4799 21.5204ZM53.6799 21.5204C53.6799 20.5604 53.0399 19.5204 51.8399 19.5204C50.6399 19.5204 49.9999 20.5604 49.9999 21.5204C49.9999 22.4804 50.6399 23.5204 51.8399 23.5204C53.0399 23.5204 53.6799 22.4804 53.6799 21.5204ZM60.7999 22.0804C60.7999 22.0004 60.7999 21.9204 60.8799 21.8404C60.8799 21.7604 60.8799 21.6004 60.8799 21.5204C60.8799 21.4404 60.8799 21.2804 60.8799 21.2004V21.1204C60.8799 21.0404 60.7999 20.8804 60.7999 20.8004C60.5599 20.0004 59.8399 19.4404 59.1199 19.4404C58.1599 19.4404 57.3599 20.4004 57.3599 21.4404C57.3599 22.5604 58.1599 23.4404 59.1999 23.4404C59.8399 23.5204 60.4799 22.9604 60.7999 22.0804ZM66.6399 21.3604L69.5999 20.0804C69.2799 19.5204 68.7999 19.3604 68.3999 19.3604C67.1999 19.4404 66.4799 20.7204 66.6399 21.3604ZM78.8799 18.6404C78.8799 17.8404 78.2399 17.2804 77.3599 17.2804H75.7599V20.0804H77.4399C78.2399 20.0804 78.8799 19.4404 78.8799 18.6404Z" fill="white"/>
<path fill-rule="evenodd" clip-rule="evenodd" d="M91.4403 25.8398H91.3604V25.7598H91.4403H91.3604V25.8398H91.4403Z" fill="white"/>
<path fill-rule="evenodd" clip-rule="evenodd" d="M91.6 25.8398C91.6 25.7598 91.6 25.7598 91.6 25.8398C91.52 25.7598 91.52 25.7598 91.6 25.8398C91.52 25.8398 91.52 25.8398 91.6 25.8398ZM91.6 25.7598C91.6 25.8398 91.6 25.8398 91.6 25.7598C91.6 25.8398 91.52 25.8398 91.6 25.7598C91.6 25.7598 91.52 25.7598 91.6 25.7598Z" fill="white"/>
<path fill-rule="evenodd" clip-rule="evenodd" d="M91.6801 25.7598H91.6001H91.6801V25.8398V25.7598Z" fill="white"/>
<path d="M31.1201 8.07977C31.1201 6.63977 32.1601 5.75977 33.4401 5.75977C34.3201 5.75977 34.8801 6.15976 35.2801 6.71976L34.6401 7.11976C34.4001 6.79976 34.0001 6.55977 33.4401 6.55977C32.5601 6.55977 31.9201 7.19977 31.9201 8.15977C31.9201 9.11977 32.5601 9.75977 33.4401 9.75977C33.9201 9.75977 34.3201 9.51977 34.4801 9.35977V8.63976H33.2001V7.91976H35.3601V9.59977C34.9601 10.0798 34.3201 10.3998 33.5201 10.3998C32.1601 10.3998 31.1201 9.43977 31.1201 8.07977Z" fill="white"/>
<path d="M36.3198 10.3198V5.83984H39.3598V6.55984H37.0398V7.67984H39.2798V8.39984H37.0398V9.67984H39.3598V10.3998L36.3198 10.3198Z" fill="white"/>
<path d="M41.5997 10.3198V6.55984H40.2397V5.83984H43.7597V6.55984H42.3997V10.3198H41.5997Z" fill="white"/>
<path d="M46.48 10.3198V5.83984H47.28V10.3198H46.48Z" fill="white"/>
<path d="M49.4401 10.3198V6.55984H48.0801V5.83984H51.6001V6.55984H50.2401V10.3198H49.4401Z" fill="white"/>
<path d="M54.1602 8.07977C54.1602 6.71977 55.1202 5.75977 56.4802 5.75977C57.8402 5.75977 58.8002 6.71977 58.8002 8.07977C58.8002 9.43977 57.8402 10.3998 56.4802 10.3998C55.1202 10.3998 54.1602 9.35977 54.1602 8.07977ZM57.9202 8.07977C57.9202 7.11977 57.3602 6.47977 56.4002 6.47977C55.5202 6.47977 54.8802 7.19977 54.8802 8.07977C54.8802 9.03977 55.4402 9.67977 56.4002 9.67977C57.3602 9.67977 57.9202 8.95977 57.9202 8.07977Z" fill="white"/>
<path d="M62.8002 10.3198L60.4802 7.11984V10.3198H59.6802V5.83984H60.4802L62.8002 8.95985V5.83984H63.6002V10.3198H62.8002Z" fill="white"/>
<defs>
<linearGradient id="paint0_linear" x1="13.0138" y1="5.25927" x2="17.4923" y2="23.652" gradientUnits="userSpaceOnUse">
<stop stop-color="#006884"/>
<stop offset="1" stop-color="#8AD1D0"/>
</linearGradient>
<linearGradient id="paint1_linear" x1="7.55254" y1="7.87543" x2="19.7573" y2="14.4734" gradientUnits="userSpaceOnUse">
<stop stop-color="#24BBB6"/>
<stop offset="1" stop-color="#DBE692"/>
</linearGradient>
<linearGradient id="paint2_linear" x1="21.5954" y1="18.8968" x2="21.5954" y2="12.5381" gradientUnits="userSpaceOnUse">
<stop stop-color="#FCC072"/>
<stop offset="1" stop-color="#F58A5B"/>
</linearGradient>
<linearGradient id="paint3_linear" x1="9.91582" y1="26.615" x2="19.5572" y2="16.8028" gradientUnits="userSpaceOnUse">
<stop stop-color="#712B8F"/>
<stop offset="1" stop-color="#EA1D27"/>
</linearGradient>
</defs>
</svg>
